<?xml version="1.0" standalone="no"?>
<!DOCTYPE svg PUBLIC "-//W3C//DTD SVG 20010904//EN"
 "http://www.w3.org/TR/2001/REC-SVG-20010904/DTD/svg10.dtd">
<svg version="1.0" xmlns="http://www.w3.org/2000/svg"
 width="700.000000pt" height="700.000000pt" viewBox="0 0 700.000000 700.000000"
 preserveAspectRatio="xMidYMid meet">
<metadata>
Created by potrace 1.14, written by Peter Selinger 2001-2017
</metadata>
<g transform="translate(0.000000,700.000000) scale(0.100000,-0.100000)"
fill="#000000" stroke="none">
<path d="M517 6123 c-1 0 -16 -3 -34 -6 -51 -8 -138 -55 -173 -93 -17 -19 -43
-58 -58 -87 l-27 -52 -3 -2035 c-3 -2247 -7 -2093 61 -2182 58 -76 134 -122
222 -134 11 -1 517 -3 1125 -3 l1105 -1 0 -215 c0 -118 -2 -215 -5 -216 -3 -1
-115 -3 -250 -4 -191 -3 -254 -7 -288 -19 -84 -30 -145 -85 -191 -171 l-26
-50 -3 -278 c-3 -301 -3 -306 51 -342 26 -17 -76 -16 2000 -15 l939 0 35 35
34 34 -3 283 c-3 279 -3 284 -28 333 -49 97 -145 168 -247 183 -26 4 -147 7
-268 7 l-220 -1 1 211 c1 115 2 213 3 217 0 4 511 9 1134 10 l1132 3 47 22
c94 44 166 131 188 226 7 33 10 666 10 2055 0 2226 5 2056 -66 2154 -36 51
-93 92 -159 117 -35 12 -418 14 -3038 15 -1649 1 -2999 0 -3000 -1z m5990
-231 c13 -7 30 -27 39 -45 16 -29 17 -165 17 -1730 0 -1193 -3 -1701 -10
-1705 -15 -9 -6100 -8 -6109 1 -4 4 -7 773 -7 1710 0 1617 1 1705 18 1731 10
15 28 32 41 39 35 18 5979 17 6011 -1z m54 -3720 c1 -9 1 -91 1 -181 -1 -178
-6 -199 -63 -228 -19 -10 -660 -13 -3007 -13 l-2984 0 -34 34 c-22 22 -34 44
-35 62 -1 45 -1 286 0 316 l1 27 3060 0 c2856 0 3060 -2 3061 -17z m-2514
-857 c0 -145 -4 -215 -11 -218 -10 -3 -1063 -2 -1077 2 -6 1 -9 413 -2 424 2
4 249 7 547 7 l543 0 0 -215z m679 -444 c24 -1 56 -27 73 -58 15 -28 17 -363
3 -372 -13 -8 -2600 -6 -2608 1 -3 3 -5 83 -5 178 0 193 9 226 67 245 20 6
457 10 1240 9 665 -1 1218 -2 1230 -3z"/>
<path d="M600 5779 c-16 -10 -34 -28 -41 -41 -9 -18 -12 -363 -11 -1553 0
-841 1 -1546 1 -1566 1 -39 47 -98 79 -100 9 -1 1304 -2 2876 -3 3131 -1 2900
-6 2933 58 15 28 16 177 16 1588 0 1434 -1 1559 -16 1582 -10 14 -27 31 -39
38 -19 11 -575 13 -2896 14 -2730 0 -2874 0 -2902 -17z m5635 -1620 c0 -781
-2 -1420 -5 -1420 -3 -1 -1233 -2 -2735 -3 l-2730 -1 1 1410 c1 775 2 1415 3
1421 1 9 700 12 2734 12 l2732 0 0 -1419z"/>
<path d="M4542 5017 c-74 -42 -70 -154 8 -194 14 -7 79 -11 168 -12 80 0 146
-2 148 -4 2 -1 -255 -261 -571 -577 l-575 -575 -407 406 c-264 263 -419 410
-438 416 -17 6 -43 6 -60 2 -21 -6 -199 -177 -600 -579 l-570 -570 0 -49 c0
-38 5 -55 24 -75 29 -31 81 -43 119 -27 15 6 259 243 542 526 l515 515 410
-409 c272 -272 419 -412 438 -416 15 -4 39 -4 55 0 18 4 231 210 655 633 l627
627 1 -145 c1 -174 1 -177 32 -208 53 -53 141 -40 172 25 14 28 15 77 13 339
l-3 306 -33 29 -32 29 -308 0 c-227 -1 -313 -4 -330 -13z"/>
<path d="M5742 2060 c-59 -36 -69 -110 -23 -162 l29 -33 142 -3 c152 -4 183 2
212 42 35 48 27 107 -22 151 -20 18 -38 20 -164 22 -126 2 -145 0 -174 -17z"/>
</g>
</svg>
